<?xml version="1.0" encoding="utf-8"?>
<svg version="1.1" id="Layer_1" xmlns="http://www.w3.org/2000/svg" xmlns:xlink="http://www.w3.org/1999/xlink" x="0px" y="0px"
	 viewBox="0 0 260 137" style="enable-background:new 0 0 260 137;" xml:space="preserve">
<style type="text/css">
	.st0{fill:#FFFFFF;}
	.st1{fill:none;stroke:#FFFFFF;stroke-width:2;stroke-linecap:round;stroke-linejoin:round;}
	.st2{fill:#2A99F4;}
	.st3{fill:none;stroke:#FFFFFF;stroke-width:1.33;stroke-linecap:round;stroke-linejoin:round;}
	.st4{fill:#EF6A0F;}
</style>
<path class="st0" d="M108.3,28.1h297.2c8.2,0,14.9,6.7,14.9,14.9l0,0c0,8.2-6.7,14.9-14.9,14.9H108.3c-8.2,0-14.9-6.7-14.9-14.9v0
	l0,0C93.4,34.7,100.1,28.1,108.3,28.1L108.3,28.1z"/>
<path class="st1" d="M81.3,37.2v6.1c0,0.6-0.5,1.1-1.1,1.1c0,0,0,0,0,0h-8.1c-0.6,0-1.1-0.5-1.2-1.1v-6.2"/>
<path class="st1" d="M68.6,37.1l7.5-5.6l7.5,5.6"/>
<path class="st2" d="M42.2,10.8h328c1.5,0,2.7,1.2,2.7,2.7c0,0,0,0,0,0v76.2c0,1.5-1.2,2.7-2.7,2.7l0,0H32.9c-1.5,0-2.7-1.2-2.7-2.7
	V22.8C30.2,16.2,35.6,10.8,42.2,10.8C42.2,10.8,42.2,10.8,42.2,10.8L42.2,10.8z"/>
<path class="st0" d="M79.9,55.4h297.2c8.2,0,14.9,6.7,14.9,14.9c0,0,0,0,0,0l0,0c0,8.2-6.7,14.9-14.9,14.9H79.9
	c-8.2,0-14.9-6.7-14.9-14.9l0,0l0,0C65,62,71.7,55.4,79.9,55.4z"/>
<path class="st0" d="M56.3,26.2c-0.1-0.4-0.3-0.8-0.6-1.1c-0.3-0.3-0.6-0.6-1-0.8c-1-0.4-2-0.4-3,0c-0.4,0.2-0.7,0.4-1,0.8
	c-0.3,0.3-0.5,0.7-0.6,1.1C50,26.6,50,27.1,50,27.6c0,0.2,0,0.5,0,0.8v0.8c0,0.3,0,0.5,0,0.7c0,0.5,0.1,0.9,0.2,1.3
	c0.1,0.4,0.3,0.8,0.6,1.1c0.3,0.3,0.6,0.6,1,0.8c1,0.4,2,0.4,3,0c0.4-0.2,0.7-0.4,1-0.8c0.3-0.3,0.5-0.7,0.6-1.1
	c0.1-0.4,0.2-0.9,0.2-1.3c0-0.2,0-0.5,0-0.7s0-0.5,0-0.8s0-0.5,0-0.8C56.5,27.1,56.5,26.6,56.3,26.2z M55.2,29.1c0,0.2,0,0.5,0,0.7
	c0,0.6-0.2,1.3-0.5,1.8c-0.7,0.8-2,0.9-2.8,0.2c-0.1-0.1-0.1-0.1-0.2-0.2c-0.4-0.5-0.5-1.2-0.5-1.8c0-0.2,0-0.5,0-0.7v-0.7
	c0-0.2,0-0.5,0-0.7c0-0.6,0.2-1.3,0.5-1.8c0.4-0.5,0.9-0.7,1.5-0.7c0.6,0,1.1,0.2,1.5,0.7c0.4,0.5,0.5,1.2,0.5,1.8
	c0,0.2,0,0.5,0,0.7L55.2,29.1z M63.8,28.1c-0.3-0.3-0.6-0.5-1-0.7c-0.4-0.2-0.9-0.3-1.3-0.3h-0.4c-0.1,0-0.2,0-0.4,0.1l1.9-2.7
	c0,0,0,0,0-0.1c0,0,0-0.1,0-0.1c0-0.1,0-0.1-0.1-0.2c0-0.1-0.1-0.1-0.2-0.1h-0.7c-0.1,0-0.2,0-0.3,0.1l-0.2,0.2l-2.5,3.5
	c-0.1,0.1-0.2,0.3-0.3,0.4c-0.1,0.2-0.2,0.4-0.3,0.6c-0.1,0.2-0.2,0.4-0.2,0.7c-0.1,0.2-0.1,0.5-0.1,0.7c0,0.5,0.1,1.1,0.4,1.5
	c0.3,0.5,0.7,0.9,1.2,1.1c0.6,0.3,1.2,0.5,1.8,0.4c0.6,0,1.3-0.1,1.8-0.4c0.5-0.3,0.9-0.7,1.1-1.2c0.5-0.8,0.5-1.8,0.2-2.7
	C64.3,28.7,64.1,28.4,63.8,28.1L63.8,28.1z M63.1,31.3c-0.2,0.3-0.4,0.5-0.8,0.7c-0.3,0.2-0.7,0.2-1,0.2c-0.3,0-0.7-0.1-1-0.2
	c-0.3-0.2-0.6-0.4-0.8-0.7c-0.2-0.3-0.3-0.7-0.3-1.1c0-0.4,0.1-0.8,0.3-1.1c0.2-0.3,0.5-0.5,0.8-0.7c0.3-0.2,0.7-0.2,1-0.2
	c0.3,0,0.7,0.1,1,0.2c0.3,0.1,0.6,0.4,0.8,0.7c0.2,0.3,0.3,0.7,0.3,1.1C63.4,30.6,63.3,31,63.1,31.3L63.1,31.3z M67.5,27.2
	c0.1,0.1,0.1,0.1,0.1,0.2v0.9c0,0.1,0,0.2-0.1,0.2c-0.1,0.1-0.1,0.1-0.2,0.1h-0.9c-0.1,0-0.2,0-0.2-0.1c-0.1-0.1-0.1-0.1-0.1-0.2
	v-0.9c0-0.1,0-0.2,0.1-0.2c0.1-0.1,0.1-0.1,0.2-0.1h0.9C67.4,27.2,67.5,27.2,67.5,27.2L67.5,27.2z M67.5,31.8
	c0.1,0.1,0.1,0.1,0.1,0.2v0.9c0,0.1,0,0.2-0.1,0.2c-0.1,0.1-0.1,0.1-0.2,0.1h-0.9c-0.1,0-0.2,0-0.2-0.1c-0.1-0.1-0.1-0.1-0.1-0.2V32
	c0-0.1,0-0.2,0.1-0.2c0.1-0.1,0.1-0.1,0.2-0.1h0.9C67.4,31.7,67.5,31.8,67.5,31.8L67.5,31.8z M75.4,32.2c0.1,0.1,0.1,0.1,0.1,0.2
	v0.5c0,0.1,0,0.2-0.1,0.2c-0.1,0.1-0.1,0.1-0.2,0.1h-5.7c-0.1,0-0.2,0-0.2-0.1c-0.1-0.1-0.1-0.1-0.1-0.2v-0.4c0-0.1,0-0.2,0.1-0.3
	c0.1-0.1,0.2-0.2,0.3-0.3l2.8-2.8c0.4-0.4,0.8-0.7,1.1-1c0.2-0.2,0.4-0.5,0.5-0.8c0.1-0.2,0.2-0.5,0.2-0.8c0.1-0.8-0.5-1.5-1.3-1.6
	c-0.1,0-0.2,0-0.3,0c-0.3,0-0.6,0.1-0.9,0.2c-0.2,0.1-0.4,0.3-0.6,0.6c-0.2,0.3-0.2,0.5-0.3,0.8c0,0.1-0.1,0.2-0.1,0.2
	c-0.1,0-0.1,0.1-0.2,0.1h-0.7c-0.1,0-0.1,0-0.2-0.1c-0.1,0-0.1-0.1-0.1-0.2c0-0.3,0.1-0.7,0.2-1c0.1-0.3,0.3-0.6,0.6-0.9
	c0.3-0.3,0.6-0.5,1-0.7c0.4-0.2,0.9-0.3,1.3-0.2c0.6,0,1.1,0.1,1.6,0.4c0.4,0.2,0.8,0.6,1,1c0.2,0.4,0.3,0.9,0.3,1.3
	c0,0.4-0.1,0.7-0.2,1c-0.1,0.3-0.3,0.6-0.6,0.9c-0.3,0.3-0.6,0.6-0.9,0.9l-2.5,2.5h4C75.2,32.1,75.3,32.1,75.4,32.2L75.4,32.2z
	 M83.3,30.3c0,0.6-0.1,1.2-0.4,1.7c-0.3,0.4-0.7,0.8-1.2,1c-0.5,0.3-1.1,0.4-1.7,0.5c-0.6,0-1.2-0.1-1.7-0.3
	c-0.4-0.2-0.8-0.5-1.1-0.9c-0.2-0.4-0.4-0.8-0.4-1.2c0-0.1,0-0.1,0.1-0.2c0.1,0,0.1-0.1,0.2-0.1h0.7c0.1,0,0.1,0,0.2,0
	c0.1,0.1,0.1,0.1,0.1,0.2c0.1,0.3,0.2,0.6,0.4,0.8c0.2,0.2,0.4,0.3,0.7,0.4c0.3,0.1,0.5,0.1,0.8,0.1c0.3,0,0.7-0.1,1-0.2
	c0.3-0.2,0.6-0.4,0.7-0.7c0.2-0.3,0.3-0.7,0.3-1.1c0-0.4-0.1-0.7-0.3-1c-0.2-0.3-0.4-0.5-0.7-0.7c-0.3-0.2-0.7-0.2-1-0.2
	c-0.2,0-0.5,0-0.7,0.1c-0.2,0.1-0.3,0.1-0.5,0.2L78.5,29c-0.1,0.1-0.2,0.1-0.3,0.1h-0.7c-0.1,0-0.2,0-0.2-0.1
	c-0.1,0-0.1-0.1-0.1-0.2l0.4-4.4c0-0.1,0-0.2,0.1-0.2c0.1-0.1,0.1-0.1,0.2-0.1h4.5c0.1,0,0.2,0,0.2,0.1c0.1,0.1,0.1,0.1,0.1,0.2V25
	c0,0.1,0,0.2-0.1,0.2c-0.1,0.1-0.1,0.1-0.2,0.1h-3.7l-0.2,2.6c0.2-0.1,0.4-0.2,0.6-0.3c0.4-0.1,0.7-0.2,1.1-0.2
	c0.4,0,0.8,0.1,1.2,0.2c0.4,0.1,0.7,0.3,1,0.6c0.3,0.3,0.5,0.6,0.7,0.9C83.2,29.5,83.3,29.9,83.3,30.3L83.3,30.3z"/>
<path class="st3" d="M232,26.6c4-3.6,10.1-3.6,14.1,0"/>
<path class="st3" d="M236.7,31.3c1.4-1,3.2-1,4.6,0"/>
<line class="st3" x1="239.1" y1="33.9" x2="239.1" y2="33.9"/>
<path class="st3" d="M234.4,28.9c2.7-2.3,6.7-2.3,9.4,0"/>
<line class="st1" x1="213.2" y1="33.8" x2="213.2" y2="27.6"/>
<line class="st1" x1="219.2" y1="33.8" x2="219.2" y2="23.8"/>
<line class="st1" x1="207.2" y1="33.8" x2="207.2" y2="31.3"/>
<path class="st1" d="M52.9,69.5v6.1c0,0.6-0.5,1.1-1.1,1.1c0,0,0,0,0,0h-8.1c-0.6,0-1.1-0.5-1.2-1.1v-6.1"/>
<path class="st1" d="M40.2,69.4l7.5-5.6l7.5,5.6"/>
<path class="st4" d="M14,44.9h328c1.5,0,2.7,1.2,2.7,2.7c0,0,0,0,0,0v76.2c0,1.5-1.2,2.7-2.7,2.7h0H4.7c-1.5,0-2.7-1.2-2.7-2.7V57
	C2,50.3,7.4,45,14,44.9L14,44.9z"/>
<path class="st0" d="M51.7,82.6h297.2c8.2,0,14.9,6.7,14.9,14.9l0,0c0,8.2-6.7,14.9-14.9,14.9H51.7c-8.2,0-14.9-6.7-14.9-14.9l0,0
	C36.8,89.3,43.5,82.6,51.7,82.6C51.7,82.6,51.7,82.6,51.7,82.6z"/>
<path class="st0" d="M28.1,61.4c-0.1-0.4-0.3-0.8-0.6-1.1c-0.3-0.3-0.6-0.6-1-0.8c-1-0.4-2-0.4-3,0c-0.4,0.2-0.7,0.4-1,0.8
	c-0.3,0.3-0.5,0.7-0.6,1.1c-0.1,0.4-0.2,0.9-0.2,1.4c0,0.2,0,0.5,0,0.8v0.8c0,0.3,0,0.5,0,0.7c0,0.5,0.1,0.9,0.2,1.3
	c0.1,0.4,0.3,0.8,0.5,1.1c0.3,0.3,0.6,0.6,1,0.8c0.5,0.2,1,0.3,1.5,0.3c0.5,0,1-0.1,1.5-0.3c0.4-0.2,0.7-0.4,1-0.8
	c0.3-0.3,0.5-0.7,0.6-1.1c0.1-0.4,0.2-0.9,0.2-1.3c0-0.2,0-0.5,0-0.7s0-0.5,0-0.8s0-0.5,0-0.8C28.3,62.3,28.3,61.8,28.1,61.4z
	 M27.1,64.2c0,0.2,0,0.5,0,0.7c0,0.6-0.1,1.3-0.5,1.8c-0.4,0.5-0.9,0.8-1.6,0.7c-0.6,0-1.1-0.2-1.5-0.7c-0.4-0.6-0.5-1.2-0.5-1.9
	c0-0.2,0-0.5,0-0.7v-0.7c0-0.2,0-0.5,0-0.7c0-0.6,0.2-1.3,0.5-1.8c0.3-0.5,0.9-0.7,1.5-0.7c0.6,0,1.1,0.2,1.5,0.7
	c0.4,0.5,0.5,1.2,0.5,1.8c0,0.2,0,0.5,0,0.7L27.1,64.2z M35.7,63.2c-0.3-0.3-0.6-0.5-1-0.7c-0.4-0.2-0.9-0.3-1.3-0.3H33
	c-0.1,0-0.2,0-0.4,0.1l1.9-2.7c0,0,0,0,0-0.1c0,0,0-0.1,0-0.1c0-0.1,0-0.1-0.1-0.2c0-0.1-0.1-0.1-0.2-0.1h-0.7c-0.1,0-0.2,0-0.3,0.1
	l-0.2,0.2L30.7,63c-0.1,0.1-0.2,0.3-0.3,0.4c-0.1,0.2-0.2,0.4-0.3,0.6c-0.1,0.2-0.2,0.4-0.2,0.7c-0.1,0.2-0.1,0.5-0.1,0.7
	c0,0.5,0.1,1.1,0.4,1.6c0.3,0.5,0.7,0.9,1.1,1.1c0.6,0.3,1.2,0.5,1.8,0.4c0.6,0,1.3-0.1,1.8-0.4c0.5-0.3,0.9-0.7,1.1-1.2
	c0.3-0.5,0.4-1,0.4-1.5c0-0.4-0.1-0.8-0.2-1.2C36.2,63.9,35.9,63.5,35.7,63.2L35.7,63.2z M34.9,66.5c-0.2,0.3-0.4,0.5-0.8,0.7
	c-0.6,0.3-1.4,0.3-2,0c-0.7-0.3-1.1-1-1-1.8c0-0.4,0.1-0.8,0.3-1.1c0.2-0.3,0.5-0.5,0.8-0.7c0.3-0.2,0.7-0.2,1-0.2
	c0.3,0,0.7,0.1,1,0.2c0.3,0.1,0.6,0.4,0.8,0.7c0.2,0.3,0.3,0.7,0.3,1.1C35.2,65.8,35.1,66.2,34.9,66.5z M39.3,62.5
	c0.1,0.1,0.1,0.1,0.1,0.2v0.9c0,0.1,0,0.2-0.1,0.2c-0.1,0.1-0.1,0.1-0.2,0.1h-0.9c-0.1,0-0.2,0-0.2-0.1c-0.1-0.1-0.1-0.1-0.1-0.2
	v-0.9c0-0.1,0-0.2,0.1-0.2c0.1-0.1,0.1-0.1,0.2-0.1h0.9C39.2,62.4,39.3,62.4,39.3,62.5z M39.3,67c0.1,0.1,0.1,0.1,0.1,0.2v0.9
	c0,0.1,0,0.2-0.1,0.2c-0.1,0.1-0.1,0.1-0.2,0.1h-0.9c-0.1,0-0.2,0-0.2-0.1c-0.1-0.1-0.1-0.1-0.1-0.2v-0.9c0-0.1,0-0.2,0.1-0.3
	c0.1-0.1,0.1-0.1,0.2-0.1h0.9C39.2,66.9,39.3,66.9,39.3,67L39.3,67z M47.2,67.4c0.1,0.1,0.1,0.1,0.1,0.2v0.5c0,0.1,0,0.2-0.1,0.2
	c-0.1,0.1-0.1,0.1-0.2,0.1h-5.7c-0.1,0-0.2,0-0.2-0.1C41,68.3,41,68.2,41,68.2v-0.4c0-0.1,0-0.2,0-0.3c0.1-0.1,0.2-0.2,0.3-0.3
	l2.8-2.8c0.4-0.4,0.8-0.7,1-0.9c0.2-0.2,0.4-0.5,0.5-0.8c0.1-0.2,0.2-0.5,0.2-0.8c0.1-0.8-0.5-1.5-1.4-1.6c-0.1,0-0.2,0-0.3,0
	c-0.3,0-0.6,0.1-0.9,0.2c-0.2,0.1-0.4,0.3-0.6,0.6c-0.2,0.3-0.2,0.5-0.3,0.8c0,0.1-0.1,0.2-0.1,0.2c-0.1,0-0.1,0.1-0.2,0.1h-0.7
	c-0.1,0-0.1,0-0.2-0.1c-0.1,0-0.1-0.1-0.1-0.2c0-0.3,0.1-0.7,0.2-1c0.1-0.3,0.3-0.6,0.6-0.9c0.3-0.3,0.6-0.5,0.9-0.7
	c0.4-0.2,0.9-0.3,1.3-0.3c0.6,0,1.2,0.1,1.7,0.4c0.4,0.2,0.8,0.6,1,1c0.2,0.4,0.3,0.9,0.3,1.3c0,0.3-0.1,0.7-0.2,1
	c-0.1,0.3-0.3,0.6-0.6,0.9c-0.3,0.3-0.6,0.6-0.9,0.9l-2.5,2.5H47C47.1,67.3,47.2,67.3,47.2,67.4L47.2,67.4z M55.1,65.5
	c0,0.6-0.1,1.2-0.4,1.7c-0.3,0.4-0.7,0.8-1.2,1c-0.5,0.2-1.1,0.4-1.7,0.3c-0.6,0-1.2-0.1-1.8-0.3c-0.4-0.2-0.8-0.5-1.1-0.9
	c-0.2-0.4-0.4-0.8-0.4-1.2c0-0.1,0-0.1,0.1-0.2c0.1,0,0.1-0.1,0.2-0.1h0.7c0.1,0,0.1,0,0.2,0c0.1,0.1,0.1,0.1,0.1,0.2
	c0.1,0.3,0.2,0.6,0.4,0.8c0.2,0.2,0.4,0.3,0.7,0.4c0.3,0.1,0.5,0.1,0.8,0.1c0.3,0,0.7-0.1,1-0.2c0.3-0.1,0.6-0.4,0.7-0.7
	c0.2-0.3,0.3-0.6,0.3-1c0-0.4-0.1-0.7-0.3-1c-0.2-0.3-0.4-0.5-0.7-0.7c-0.3-0.1-0.7-0.2-1-0.2c-0.2,0-0.5,0-0.7,0.1
	c-0.2,0.1-0.3,0.1-0.5,0.2l-0.3,0.2c-0.1,0.1-0.2,0.1-0.3,0.1h-0.7c-0.1,0-0.2,0-0.2-0.1C49,64.2,49,64.1,49,64l0.4-4.3
	c0-0.1,0-0.2,0.1-0.2c0.1-0.1,0.1-0.1,0.2-0.1h4.5c0.1,0,0.2,0,0.2,0.1c0.1,0.1,0.1,0.1,0.1,0.2v0.5c0,0.1,0,0.2-0.1,0.2
	c-0.1,0.1-0.1,0.1-0.2,0.1h-3.8L50.2,63c0.2-0.1,0.4-0.2,0.6-0.3c0.4-0.1,0.7-0.2,1.1-0.2c0.4,0,0.8,0.1,1.2,0.2
	c0.4,0.1,0.7,0.3,1,0.6c0.3,0.2,0.5,0.6,0.7,0.9C55,64.6,55.1,65.1,55.1,65.5z"/>
<path class="st3" d="M233.6,67.7h-1.3c-0.7,0-1.3-0.6-1.3-1.3V61c0-0.7,0.6-1.3,1.3-1.3c0,0,0,0,0,0h2.1 M240.3,59.7h1.3
	c0.7,0,1.3,0.6,1.3,1.3v5.3c0,0.7-0.6,1.3-1.3,1.3c0,0,0,0,0,0h-2.1"/>
<line class="st3" x1="245.6" y1="64.4" x2="245.6" y2="63"/>
<polyline class="st3" points="237.6,59.7 235,63.7 239,63.7 236.3,67.7 "/>
<path class="st3" d="M203.8,61.7c4-3.6,10.1-3.6,14.1,0"/>
<path class="st3" d="M208.6,66.5c1.4-1,3.2-1,4.6,0"/>
<line class="st3" x1="210.9" y1="69" x2="210.9" y2="69"/>
<path class="st3" d="M206.2,64.1c2.7-2.3,6.7-2.3,9.4,0"/>
<line class="st1" x1="185" y1="69" x2="185" y2="62.7"/>
<line class="st1" x1="191" y1="69" x2="191" y2="59"/>
<line class="st1" x1="179" y1="69" x2="179" y2="66.5"/>
<path class="st1" d="M24.7,96.7v6.1c0,0.6-0.5,1.1-1.1,1.1c0,0,0,0,0,0h-8.1c-0.6,0-1.1-0.5-1.1-1.1c0,0,0,0,0,0v-6.1"/>
<path class="st1" d="M12,96.6l7.5-5.6l7.5,5.6"/>
</svg>
